<svg xmlns="http://www.w3.org/2000/svg" viewBox="0 0 1920 262.09"><defs><style>.cls-1{fill:#f97e03;}</style></defs><g id="Layer_2" data-name="Layer 2"><g id="Layer_1-2" data-name="Layer 1"><path class="cls-1" d="M78.84,61.9H45.17v67H78.84c24.62,0,38.73-11.94,38.73-33.3C117.57,74.94,102.73,61.9,78.84,61.9Zm0,63.72H48.43V65.16H78.84c21.72,0,35.48,11.59,35.48,30.41C114.32,115.12,101.65,125.62,78.84,125.62Zm0-63.72H45.17v67H78.84c24.62,0,38.73-11.94,38.73-33.3C117.57,74.94,102.73,61.9,78.84,61.9Zm0,63.72H48.43V65.16H78.84c21.72,0,35.48,11.59,35.48,30.41C114.32,115.12,101.65,125.62,78.84,125.62Zm0-63.72H45.17v67H78.84c24.62,0,38.73-11.94,38.73-33.3C117.57,74.94,102.73,61.9,78.84,61.9Zm0,63.72H48.43V65.16H78.84c21.72,0,35.48,11.59,35.48,30.41C114.32,115.12,101.65,125.62,78.84,125.62Zm0-121.27H0V7.6H78.84c60.09,0,97.74,33.67,97.74,88,0,62.63-50.68,84.71-97.74,84.71H45.17v63a11,11,0,0,1-10.86,11.22H0v3.26H34.31a14.45,14.45,0,0,0,14.12-14.48V183.54H78.84c48.87,0,101-23.17,101-88C179.84,39.1,141.1,4.35,78.84,4.35Zm0,57.55H45.17v67H78.84c24.62,0,38.73-11.94,38.73-33.3C117.57,74.94,102.73,61.9,78.84,61.9Zm0,63.72H48.43V65.16H78.84c21.72,0,35.48,11.59,35.48,30.41C114.32,115.12,101.65,125.62,78.84,125.62Zm0-63.72H45.17v67H78.84c24.62,0,38.73-11.94,38.73-33.3C117.57,74.94,102.73,61.9,78.84,61.9Zm0,63.72H48.43V65.16H78.84c21.72,0,35.48,11.59,35.48,30.41C114.32,115.12,101.65,125.62,78.84,125.62Z"/><path class="cls-1" d="M332.24,58.65c-44.53,0-67.7,36.56-67.7,72.4s23.17,72.4,67.7,72.4c44.16,0,67.33-36.57,67.33-72.4S376.4,58.65,332.24,58.65Zm0,141.54c-44.16,0-64.44-35.84-64.44-69.14S288.08,61.9,332.24,61.9s64.07,35.84,64.07,69.15S376.4,200.19,332.24,200.19Zm0-141.54c-44.53,0-67.7,36.56-67.7,72.4s23.17,72.4,67.7,72.4c44.16,0,67.33-36.57,67.33-72.4S376.4,58.65,332.24,58.65Zm0,141.54c-44.16,0-64.44-35.84-64.44-69.14S288.08,61.9,332.24,61.9s64.07,35.84,64.07,69.15S376.4,200.19,332.24,200.19Zm0-141.54c-44.53,0-67.7,36.56-67.7,72.4s23.17,72.4,67.7,72.4c44.16,0,67.33-36.57,67.33-72.4S376.4,58.65,332.24,58.65Zm0,141.54c-44.16,0-64.44-35.84-64.44-69.14S288.08,61.9,332.24,61.9s64.07,35.84,64.07,69.15S376.4,200.19,332.24,200.19Zm0-141.54c-44.53,0-67.7,36.56-67.7,72.4s23.17,72.4,67.7,72.4c44.16,0,67.33-36.57,67.33-72.4S376.4,58.65,332.24,58.65Zm0,141.54c-44.16,0-64.44-35.84-64.44-69.14S288.08,61.9,332.24,61.9s64.07,35.84,64.07,69.15S376.4,200.19,332.24,200.19ZM332.24,0C257.67,0,203.37,55,203.37,131.05s54.3,131,128.87,131,128.51-55,128.51-131S406.81,0,332.24,0Zm0,258.83c-72.76,0-125.62-53.57-125.62-127.78S259.48,2.9,332.24,2.9,457.49,56.84,457.49,131.05,405,258.83,332.24,258.83Zm0-200.18c-44.53,0-67.7,36.56-67.7,72.4s23.17,72.4,67.7,72.4c44.16,0,67.33-36.57,67.33-72.4S376.4,58.65,332.24,58.65Zm0,141.54c-44.16,0-64.44-35.84-64.44-69.14S288.08,61.9,332.24,61.9s64.07,35.84,64.07,69.15S376.4,200.19,332.24,200.19Zm0-141.54c-44.53,0-67.7,36.56-67.7,72.4s23.17,72.4,67.7,72.4c44.16,0,67.33-36.57,67.33-72.4S376.4,58.65,332.24,58.65Zm0,141.54c-44.16,0-64.44-35.84-64.44-69.14S288.08,61.9,332.24,61.9s64.07,35.84,64.07,69.15S376.4,200.19,332.24,200.19Zm0-141.54c-44.53,0-67.7,36.56-67.7,72.4s23.17,72.4,67.7,72.4c44.16,0,67.33-36.57,67.33-72.4S376.4,58.65,332.24,58.65Zm0,141.54c-44.16,0-64.44-35.84-64.44-69.14S288.08,61.9,332.24,61.9s64.07,35.84,64.07,69.15S376.4,200.19,332.24,200.19Z"/><path class="cls-1" d="M593.24,61.9H556.68v60.82h36.56c22.44,0,35.48-11.22,35.48-30.41C628.72,73.49,615.32,61.9,593.24,61.9Zm0,57.56H559.57V65.16h33.67c20.27,0,32.58,10.14,32.58,27.15C625.82,115.84,605.19,119.46,593.24,119.46Zm0-57.56H556.68v60.82h36.56c22.44,0,35.48-11.22,35.48-30.41C628.72,73.49,615.32,61.9,593.24,61.9Zm0,57.56H559.57V65.16h33.67c20.27,0,32.58,10.14,32.58,27.15C625.82,115.84,605.19,119.46,593.24,119.46Zm0-57.56H556.68v60.82h36.56c22.44,0,35.48-11.22,35.48-30.41C628.72,73.49,615.32,61.9,593.24,61.9Zm0,57.56H559.57V65.16h33.67c20.27,0,32.58,10.14,32.58,27.15C625.82,115.84,605.19,119.46,593.24,119.46Zm0-57.56H556.68v60.82h36.56c22.44,0,35.48-11.22,35.48-30.41C628.72,73.49,615.32,61.9,593.24,61.9Zm0,57.56H559.57V65.16h33.67c20.27,0,32.58,10.14,32.58,27.15C625.82,115.84,605.19,119.46,593.24,119.46ZM697.5,241.09,653,158.92c24.62-14.48,38-38,38-66.61,0-54.3-37.65-88-97.74-88H509.62a14.44,14.44,0,0,0-14.48,14.11V243.27a14.52,14.52,0,0,0,14.48,14.48h35.84a14.22,14.22,0,0,0,14.11-14.48V174.12h33.67c.72,0,1.45-.36,2.53-.36L633.06,248a16.74,16.74,0,0,0,15.57,9.78h39.09C696.41,257.75,701.84,249.06,697.5,241.09Zm-9.78,13.4H648.63a14.44,14.44,0,0,1-13-8l-38-76-1.44.37H556.68v72.4a11.28,11.28,0,0,1-11.22,11.22H509.62a11.27,11.27,0,0,1-11.22-11.22V18.46A11.21,11.21,0,0,1,509.62,7.6h83.62c58.28,0,94.48,32.58,94.48,84.71,0,27.88-13.39,51-37.65,64.8l-1.44.72,46,85.07C697.86,249.06,693.51,254.49,687.72,254.49ZM593.24,61.9H556.68v60.82h36.56c22.44,0,35.48-11.22,35.48-30.41C628.72,73.49,615.32,61.9,593.24,61.9Zm0,57.56H559.57V65.16h33.67c20.27,0,32.58,10.14,32.58,27.15C625.82,115.84,605.19,119.46,593.24,119.46Zm0-57.56H556.68v60.82h36.56c22.44,0,35.48-11.22,35.48-30.41C628.72,73.49,615.32,61.9,593.24,61.9Zm0,57.56H559.57V65.16h33.67c20.27,0,32.58,10.14,32.58,27.15C625.82,115.84,605.19,119.46,593.24,119.46Zm0-57.56H556.68v60.82h36.56c22.44,0,35.48-11.22,35.48-30.41C628.72,73.49,615.32,61.9,593.24,61.9Zm0,57.56H559.57V65.16h33.67c20.27,0,32.58,10.14,32.58,27.15C625.82,115.84,605.19,119.46,593.24,119.46Z"/><path class="cls-1" d="M882.84,4.35H730.07a14.45,14.45,0,0,0-14.48,14.11V51a14.45,14.45,0,0,0,14.48,14.12h44.17V243.27a14.45,14.45,0,0,0,14.12,14.48h35.83a14.52,14.52,0,0,0,14.48-14.48V65.16h44.17A14.45,14.45,0,0,0,897.32,51V18.46A14.45,14.45,0,0,0,882.84,4.35ZM894.06,51A11,11,0,0,1,882.84,61.9H835.42V243.27a11.28,11.28,0,0,1-11.23,11.22H788.36a11.21,11.21,0,0,1-10.86-11.22V61.9H730.07A11,11,0,0,1,718.85,51V18.46A11.21,11.21,0,0,1,730.07,7.6H882.84a11.21,11.21,0,0,1,11.22,10.86Z"/><path class="cls-1" d="M1074,4.35H943.29a14.44,14.44,0,0,0-14.48,14.11V243.27a14.52,14.52,0,0,0,14.48,14.48h35.84a14.22,14.22,0,0,0,14.11-14.48V170.5h70.23a14.13,14.13,0,0,0,14.12-14.11V123.81a14.13,14.13,0,0,0-14.12-14.12H993.24V65.16H1074A14.38,14.38,0,0,0,1088.09,51V18.46A14.37,14.37,0,0,0,1074,4.35ZM1084.83,51A10.89,10.89,0,0,1,1074,61.9H990.35V113h73.12a11.2,11.2,0,0,1,11.22,10.86v32.58a11,11,0,0,1-11.22,10.86H990.35v76a11.28,11.28,0,0,1-11.22,11.22H943.29a11.27,11.27,0,0,1-11.22-11.22V18.46A11.21,11.21,0,0,1,943.29,7.6H1074a11.14,11.14,0,0,1,10.86,10.86Z"/><path class="cls-1" d="M1239.4,58.65c-44.52,0-67.69,36.56-67.69,72.4s23.17,72.4,67.69,72.4c44.17,0,67.34-36.57,67.34-72.4S1283.57,58.65,1239.4,58.65Zm0,141.54c-44.16,0-64.43-35.84-64.43-69.14s20.27-69.15,64.43-69.15,64.08,35.84,64.08,69.15S1283.57,200.19,1239.4,200.19Zm0-141.54c-44.52,0-67.69,36.56-67.69,72.4s23.17,72.4,67.69,72.4c44.17,0,67.34-36.57,67.34-72.4S1283.57,58.65,1239.4,58.65Zm0,141.54c-44.16,0-64.43-35.84-64.43-69.14s20.27-69.15,64.43-69.15,64.08,35.84,64.08,69.15S1283.57,200.19,1239.4,200.19Zm0-141.54c-44.52,0-67.69,36.56-67.69,72.4s23.17,72.4,67.69,72.4c44.17,0,67.34-36.57,67.34-72.4S1283.57,58.65,1239.4,58.65Zm0,141.54c-44.16,0-64.43-35.84-64.43-69.14s20.27-69.15,64.43-69.15,64.08,35.84,64.08,69.15S1283.57,200.19,1239.4,200.19Zm0-141.54c-44.52,0-67.69,36.56-67.69,72.4s23.17,72.4,67.69,72.4c44.17,0,67.34-36.57,67.34-72.4S1283.57,58.65,1239.4,58.65Zm0,141.54c-44.16,0-64.43-35.84-64.43-69.14s20.27-69.15,64.43-69.15,64.08,35.84,64.08,69.15S1283.57,200.19,1239.4,200.19ZM1239.4,0c-74.57,0-128.87,55-128.87,131.05s54.3,131,128.87,131,128.51-55,128.51-131S1314,0,1239.4,0Zm0,258.83c-72.76,0-125.61-53.57-125.61-127.78S1166.64,2.9,1239.4,2.9s125.26,53.94,125.26,128.15S1312.17,258.83,1239.4,258.83Zm0-200.18c-44.52,0-67.69,36.56-67.69,72.4s23.17,72.4,67.69,72.4c44.17,0,67.34-36.57,67.34-72.4S1283.57,58.65,1239.4,58.65Zm0,141.54c-44.16,0-64.43-35.84-64.43-69.14s20.27-69.15,64.43-69.15,64.08,35.84,64.08,69.15S1283.57,200.19,1239.4,200.19Zm0-141.54c-44.52,0-67.69,36.56-67.69,72.4s23.17,72.4,67.69,72.4c44.17,0,67.34-36.57,67.34-72.4S1283.57,58.65,1239.4,58.65Zm0,141.54c-44.16,0-64.43-35.84-64.43-69.14s20.27-69.15,64.43-69.15,64.08,35.84,64.08,69.15S1283.57,200.19,1239.4,200.19Zm0-141.54c-44.52,0-67.69,36.56-67.69,72.4s23.17,72.4,67.69,72.4c44.17,0,67.34-36.57,67.34-72.4S1283.57,58.65,1239.4,58.65Zm0,141.54c-44.16,0-64.43-35.84-64.43-69.14s20.27-69.15,64.43-69.15,64.08,35.84,64.08,69.15S1283.57,200.19,1239.4,200.19Z"/><path class="cls-1" d="M1545.29,196.93h-78.91V18.46A14.45,14.45,0,0,0,1451.9,4.35h-35.84a14.13,14.13,0,0,0-14.12,14.11V243.27a14.22,14.22,0,0,0,14.12,14.48h129.23a14.22,14.22,0,0,0,14.12-14.48V211.05A13.91,13.91,0,0,0,1545.29,196.93Zm11.22,46.34a11.27,11.27,0,0,1-11.22,11.22H1416.06a11.28,11.28,0,0,1-11.22-11.22V18.46A11.21,11.21,0,0,1,1416.06,7.6h35.84a11.21,11.21,0,0,1,11.22,10.86V199.83h82.17a11.27,11.27,0,0,1,11.22,11.22Z"/><path class="cls-1" d="M1640.86,4.35H1605a14.13,14.13,0,0,0-14.12,14.11V243.27A14.22,14.22,0,0,0,1605,257.75h35.84a14.53,14.53,0,0,0,14.48-14.48V18.46A14.45,14.45,0,0,0,1640.86,4.35Zm11.22,238.92a11.28,11.28,0,0,1-11.22,11.22H1605a11.28,11.28,0,0,1-11.22-11.22V18.46A11.21,11.21,0,0,1,1605,7.6h35.84a11.21,11.21,0,0,1,11.22,10.86Z"/><path class="cls-1" d="M1817.15,58.65c-44.53,0-67.7,36.56-67.7,72.4s23.17,72.4,67.7,72.4c44.16,0,67.33-36.57,67.33-72.4S1861.31,58.65,1817.15,58.65Zm0,141.54c-44.17,0-64.44-35.84-64.44-69.14S1773,61.9,1817.15,61.9s64.07,35.84,64.07,69.15S1861.31,200.19,1817.15,200.19Zm0-141.54c-44.53,0-67.7,36.56-67.7,72.4s23.17,72.4,67.7,72.4c44.16,0,67.33-36.57,67.33-72.4S1861.31,58.65,1817.15,58.65Zm0,141.54c-44.17,0-64.44-35.84-64.44-69.14S1773,61.9,1817.15,61.9s64.07,35.84,64.07,69.15S1861.31,200.19,1817.15,200.19Zm0-141.54c-44.53,0-67.7,36.56-67.7,72.4s23.17,72.4,67.7,72.4c44.16,0,67.33-36.57,67.33-72.4S1861.31,58.65,1817.15,58.65Zm0,141.54c-44.17,0-64.44-35.84-64.44-69.14S1773,61.9,1817.15,61.9s64.07,35.84,64.07,69.15S1861.31,200.19,1817.15,200.19Zm0-141.54c-44.53,0-67.7,36.56-67.7,72.4s23.17,72.4,67.7,72.4c44.16,0,67.33-36.57,67.33-72.4S1861.31,58.65,1817.15,58.65Zm0,141.54c-44.17,0-64.44-35.84-64.44-69.14S1773,61.9,1817.15,61.9s64.07,35.84,64.07,69.15S1861.31,200.19,1817.15,200.19ZM1920,55V49.47C1897.16,18.74,1860.67,0,1817.15,0c-74.57,0-128.87,55-128.87,131.05s54.3,131,128.87,131c43.52,0,80-18.74,102.85-49.46V207c-22,32.09-58.7,51.81-102.85,51.81-72.76,0-125.62-53.57-125.62-127.78S1744.39,2.9,1817.15,2.9C1861.29,2.9,1898,22.76,1920,55Zm-170.55,76.1c0,35.83,23.17,72.4,67.7,72.4,44.16,0,67.33-36.57,67.33-72.4s-23.17-72.4-67.33-72.4C1772.62,58.65,1749.45,95.21,1749.45,131.05Zm131.77,0c0,33.3-19.91,69.14-64.07,69.14s-64.44-35.84-64.44-69.14S1773,61.9,1817.15,61.9,1881.22,97.74,1881.22,131.05Zm-64.07-72.4c-44.53,0-67.7,36.56-67.7,72.4s23.17,72.4,67.7,72.4c44.16,0,67.33-36.57,67.33-72.4S1861.31,58.65,1817.15,58.65Zm0,141.54c-44.17,0-64.44-35.84-64.44-69.14S1773,61.9,1817.15,61.9s64.07,35.84,64.07,69.15S1861.31,200.19,1817.15,200.19Zm0-141.54c-44.53,0-67.7,36.56-67.7,72.4s23.17,72.4,67.7,72.4c44.16,0,67.33-36.57,67.33-72.4S1861.31,58.65,1817.15,58.65Zm0,141.54c-44.17,0-64.44-35.84-64.44-69.14S1773,61.9,1817.15,61.9s64.07,35.84,64.07,69.15S1861.31,200.19,1817.15,200.19Z"/></g></g></svg>